<svg xmlns="http://www.w3.org/2000/svg" version="1.1" xmlns:xlink="http://www.w3.org/1999/xlink" xmlns:svgjs="http://svgjs.dev/svgjs" width="1000" height="386" viewBox="0 0 1000 386"><g transform="matrix(1,0,0,1,-0.6060589966521661,0.3222227089650005)"><svg viewBox="0 0 396 153" data-background-color="#ffffff" preserveAspectRatio="xMidYMid meet" height="386" width="1000" xmlns="http://www.w3.org/2000/svg" xmlns:xlink="http://www.w3.org/1999/xlink"><g id="tight-bounds" transform="matrix(1,0,0,1,0.23999936267426847,-0.12772040018560915)"><svg viewBox="0 0 395.52 153.25544080037122" height="153.25544080037122" width="395.52"><g><svg viewBox="0 0 395.52 153.25544080037122" height="153.25544080037122" width="395.52"><g transform="matrix(1,0,0,1,0,114.94230854979118)"><svg viewBox="0 0 395.52 38.31313225058005" height="38.31313225058005" width="395.52"><g id="textblocktransform"><svg viewBox="0 0 395.52 38.31313225058005" height="38.31313225058005" width="395.52" id="textblock"><g><svg viewBox="0 0 395.52 38.31313225058005" height="38.31313225058005" width="395.52"><g transform="matrix(1,0,0,1,0,0)"><svg width="395.52" viewBox="0 -36.209999084472656 378.7799987792969 36.70000076293945" height="38.31313225058005" data-palette-color="#ecab55"><path d="M31.64 0L27.34 0 22.9-11.35 8.59-11.35 4.2 0 0 0 14.11-35.84 17.6-35.84 31.64 0ZM10.06-15.09L21.61-15.09 17.46-26.15Q16.65-28.25 15.8-31.3L15.8-31.3Q15.26-28.96 14.26-26.15L14.26-26.15 10.06-15.09ZM56.44 0L36.55 0 36.55-35.69 40.7-35.69 40.7-3.76 56.44-3.76 56.44 0ZM81.64 0L78.29 0 66.18-31.64 65.99-31.64Q66.33-27.88 66.33-22.71L66.33-22.71 66.33 0 62.5 0 62.5-35.69 68.75-35.69 80.05-6.25 80.24-6.25 91.65-35.69 97.85-35.69 97.85 0 93.7 0 93.7-23Q93.7-26.95 94.04-31.59L94.04-31.59 93.84-31.59 81.64 0ZM134.37 0L130.07 0 125.63-11.35 111.32-11.35 106.93 0 102.73 0 116.84-35.84 120.33-35.84 134.37 0ZM112.79-15.09L124.33-15.09 120.18-26.15Q119.38-28.25 118.52-31.3L118.52-31.3Q117.99-28.96 116.98-26.15L116.98-26.15 112.79-15.09ZM150.26-32.01L150.26 0 146.11 0 146.11-32.01 134.8-32.01 134.8-35.69 161.56-35.69 161.56-32.01 150.26-32.01ZM166.56-35.69L176.01-17.85 185.53-35.69 190.03-35.69 178.11-13.84 178.11 0 173.91 0 173.91-13.65 162.02-35.69 166.56-35.69ZM227.81-3.71L227.81 0 207.92 0 207.92-35.69 227.81-35.69 227.81-32.01 212.07-32.01 212.07-20.51 226.86-20.51 226.86-16.85 212.07-16.85 212.07-3.71 227.81-3.71ZM247.95-12.74L256.11-35.69 260.58-35.69 247.71 0 243.61 0 230.81-35.69 235.21-35.69 243.41-12.6Q244.83-8.62 245.66-4.86L245.66-4.86Q246.54-8.81 247.95-12.74L247.95-12.74ZM285.38-3.71L285.38 0 265.48 0 265.48-35.69 285.38-35.69 285.38-32.01 269.63-32.01 269.63-20.51 284.43-20.51 284.43-16.85 269.63-16.85 269.63-3.71 285.38-3.71ZM321.17-35.69L321.17 0 316.43 0 296.92-29.96 296.73-29.96Q297.12-24.68 297.12-20.29L297.12-20.29 297.12 0 293.29 0 293.29-35.69 297.97-35.69 317.43-5.86 317.63-5.86Q317.58-6.52 317.41-10.1 317.24-13.67 317.28-15.21L317.28-15.21 317.28-35.69 321.17-35.69ZM341.96-32.01L341.96 0 337.81 0 337.81-32.01 326.51-32.01 326.51-35.69 353.27-35.69 353.27-32.01 341.96-32.01ZM378.78-9.5L378.78-9.5Q378.78-4.79 375.36-2.15 371.94 0.49 366.08 0.49L366.08 0.49Q359.74 0.49 356.32-1.15L356.32-1.15 356.32-5.15Q358.51-4.22 361.1-3.69 363.69-3.15 366.23-3.15L366.23-3.15Q370.38-3.15 372.48-4.72 374.58-6.3 374.58-9.11L374.58-9.11Q374.58-10.96 373.83-12.15 373.09-13.33 371.34-14.33 369.6-15.33 366.03-16.6L366.03-16.6Q361.05-18.38 358.92-20.83 356.78-23.27 356.78-27.2L356.78-27.2Q356.78-31.32 359.88-33.76 362.98-36.21 368.09-36.21L368.09-36.21Q373.41-36.21 377.88-34.25L377.88-34.25 376.58-30.64Q372.16-32.5 367.99-32.5L367.99-32.5Q364.69-32.5 362.84-31.08 360.98-29.66 360.98-27.15L360.98-27.15Q360.98-25.29 361.66-24.11 362.35-22.92 363.97-21.94 365.6-20.95 368.94-19.75L368.94-19.75Q374.55-17.75 376.67-15.45 378.78-13.16 378.78-9.5Z" opacity="1" transform="matrix(1,0,0,1,0,0)" fill="#ecab55" class="undefined-text-0" data-fill-palette-color="primary" id="text-0"></path></svg></g></svg></g></svg></g></svg></g><g transform="matrix(1,0,0,1,144.81125122969837,0)"><svg viewBox="0 0 105.89749754060324 105.89749754060324" height="105.89749754060324" width="105.89749754060324"><g><svg></svg></g><g id="icon-0"><svg viewBox="0 0 105.89749754060324 105.89749754060324" height="105.89749754060324" width="105.89749754060324"><g><path xmlns="http://www.w3.org/2000/svg" d="M31.769 105.897c-17.546 0-31.769-14.224-31.769-31.769v-42.359c0-17.546 14.224-31.769 31.769-31.769h42.359c17.546 0 31.769 14.224 31.77 31.769v42.359c0 17.546-14.224 31.769-31.77 31.769z" fill="#ecab55" fill-rule="nonzero" stroke="none" stroke-width="1" stroke-linecap="butt" stroke-linejoin="miter" stroke-miterlimit="10" stroke-dasharray="" stroke-dashoffset="0" font-family="none" font-weight="none" font-size="none" text-anchor="none" style="mix-blend-mode: normal" data-fill-palette-color="accent"></path></g><g transform="matrix(1,0,0,1,27.44799985661568,21.179499508120646)"><svg viewBox="0 0 51.00149782737188 63.53849852436195" height="63.53849852436195" width="51.00149782737188"><g><svg xmlns="http://www.w3.org/2000/svg" xmlns:xlink="http://www.w3.org/1999/xlink" version="1.1" x="0" y="0" viewBox="45.59999465942383 20 208.69850158691406 260" enable-background="new 0 0 300 300" xml:space="preserve" height="63.53849852436195" width="51.00149782737188" class="icon-s-0" data-fill-palette-color="quaternary" id="s-0"><path d="M253.2 116.8c-0.4-0.4-0.8-0.8-1.2-1.1 0.2-1.3 0.4-2.6 0.4-4 0-9.3-5.7-17.5-14.1-20.9-1.1-7.3-5.6-13.5-12.2-16.8C223.9 63.7 214.8 56 203.9 56c-0.3 0-0.5 0-0.8 0-1.1-8-6.6-14.9-14.1-17.8C187.1 27.7 178 20 167 20c-7.3 0-14 3.5-18.2 9.2-7.6-0.1-14.6 3.6-18.8 9.7-1.5-0.3-3-0.5-4.6-0.5-7 0-13.5 3.2-17.7 8.6-1.2-0.2-2.3-0.3-3.5-0.3-11.5 0-21 8.6-22.4 19.7-9.1 1.6-16.3 8.7-18.2 17.7-10.3 2.1-18 11.2-18 22.1 0 3.7 0.9 7.3 2.6 10.5 0 0-0.1 0.1-0.1 0.1-0.9 1.2-1.3 2.7-1 4.1l31 155c0 0 0 0 0 0 0 0.1 0 0.1 0.1 0.2 0.1 0.2 0.1 0.5 0.2 0.7 0 0.1 0.1 0.2 0.1 0.3 0.1 0.2 0.2 0.4 0.3 0.5 0.1 0.1 0.1 0.2 0.2 0.3 0.1 0.2 0.2 0.3 0.4 0.4 0.1 0.1 0.2 0.2 0.3 0.3 0.1 0.1 0.3 0.2 0.4 0.3 0.1 0.1 0.2 0.1 0.3 0.2 0.2 0.1 0.3 0.2 0.5 0.3 0.1 0.1 0.2 0.1 0.3 0.2 0.2 0.1 0.4 0.1 0.6 0.2 0.1 0 0.2 0.1 0.3 0.1 0.3 0.1 0.6 0.1 0.9 0.1 0 0 0 0 0 0h2.6H116h33 33 33c0 0 0 0 0 0 0 0 0 0 0 0h2.2c2.4 0 4.4-1.7 4.9-4l32.1-155C254.5 119.5 254.1 118 253.2 116.8zM220 143.7l18.7-18.7h2l-1 4.9L220 149.5V143.7zM220 163.7l16-16-1.5 7.4L220 169.5V163.7zM220 183.7l10.8-10.8-1.5 7.4-9.3 9.3V183.7zM220 203.7l5.7-5.7-1.5 7.4-4.2 4.2V203.7zM220 223.7l0.5-0.5-0.5 2.6V223.7zM220 129.5V125h4.5L220 129.5zM68.3 93.7c2.8 0 5-2.2 5-5 0-6.9 5.6-12.5 12.5-12.5 0.2 0 0.4 0 0.6 0 1.5 0.1 2.9-0.4 4-1.5 1-1.1 1.5-2.5 1.4-4-0.1-0.5-0.1-1-0.1-1.4 0-6.9 5.6-12.5 12.5-12.5 1.4 0 2.8 0.2 4.1 0.7 2.3 0.8 4.9-0.2 6.1-2.4 2.2-4.1 6.4-6.6 11.1-6.6 1.7 0 3.4 0.3 4.9 1 1.2 0.5 2.6 0.6 3.8 0.1 1.2-0.5 2.2-1.5 2.8-2.7 2-4.6 6.5-7.6 11.5-7.6 0.6 0 1.3 0.1 2 0.2 2.1 0.4 4.3-0.7 5.3-2.6 2.2-4.2 6.4-6.8 11.1-6.8 6.8 0 12.3 5.3 12.5 12.2 0.1 2.3 1.7 4.3 4 4.7 5.7 1.2 9.9 6.4 9.9 12.3 0 0.6-0.1 1.3-0.2 2-0.3 1.7 0.3 3.5 1.7 4.7 1.3 1.1 3.2 1.5 4.9 0.9 1.4-0.5 2.8-0.7 4.1-0.7 6.6 0 12.1 5.2 12.5 11.8 0.1 2.1 1.5 3.8 3.4 4.5 5.1 1.7 8.6 6.5 8.6 11.8 0 0.1 0 0.3 0 0.4 0 2.4 1.7 4.4 4 4.9 5.7 1.2 9.9 6.4 9.9 12.3 0 1.1-0.2 2.2-0.4 3.2H215h-33-33-32.4c0 0 0 0 0 0H116 83 58.9c-0.2-0.5-0.4-0.9-0.7-1.3-1.6-2.2-2.5-4.7-2.5-7.5C55.7 99.3 61.3 93.7 68.3 93.7zM177 212.5l-23 23v-5.9l23-23V212.5zM177 192.5l-23 23v-5.9l23-23V192.5zM177 172.5l-23 23v-5.9l23-23V172.5zM177 152.5l-23 23v-5.9l23-23V152.5zM177 132.5l-23 23v-5.9l23-23V132.5zM154 135.5v-5.9l4.7-4.7h5.9L154 135.5zM154 249.7l23-23v5.9l-23 23V249.7zM177 270h-3.3l3.3-3.3V270zM93.7 270l17.3-17.3v5.8L99.5 270H93.7zM111 238.6l-23 23v-5.9l23-23V238.6zM111 218.5l-23 23v-5.9l23-23V218.5zM111 198.5l-23 23v-5.9l23-23V198.5zM111 178.5l-23 23v-5.9l23-23V178.5zM111 158.5l-23 23v-5.9l23-23V158.5zM111 138.5l-23 23v-5.9l23-23V138.5zM88 141.5v-5.9L98.7 125h5.9L88 141.5zM78 213.7l-1.9-9.2c0 0 0-0.1 0-0.1L59.6 125H78V213.7zM121 241c0-0.3 0-0.6 0-0.8V221v-20-76h23v43 20 82h-23V241zM154 269.7l23-23v5.9L159.5 270H154V269.7zM187 125h23v145h-23V125zM100.3 89.2c0-0.6 0-1.3 0-2 0.1-0.7 0.2-1.4 0.4-2.2 0.3-1.5 1-3 1.9-4.4 0.9-1.4 2.1-2.8 3.6-3.9 0.7-0.5 1.5-1.1 2.3-1.5 0.4-0.2 0.8-0.4 1.3-0.6l0.6-0.3 0.3-0.1 0.2-0.1 0.1 0 0 0 0 0 0.3-0.1 1-0.3c0.2 0 0.3-0.1 0.6-0.1l0.8-0.1c1.1-0.2 2-0.2 2.9-0.2 1.8 0.1 3.6 0.4 5.2 1.1 1.6 0.6 3 1.5 4.2 2.5 0.6 0.5 1.1 1 1.6 1.5 0.5 0.5 0.9 1.1 1.2 1.6 0.3 0.6 0.6 1.1 0.9 1.6 0.2 0.5 0.4 1 0.6 1.5 0.1 0.5 0.2 0.9 0.3 1.4 0.1 0.4 0.1 0.8 0.1 1.2 0.1 0.7-0.1 1.3-0.1 1.6 0 0.4-0.1 0.6-0.1 0.6s-0.2-0.1-0.4-0.4c-0.3-0.2-0.7-0.6-1.2-1-0.2-0.2-0.5-0.4-0.8-0.6-0.3-0.2-0.6-0.4-1-0.6-0.7-0.4-1.4-0.8-2.2-1.2-0.8-0.3-1.7-0.6-2.6-0.8-0.9-0.2-1.8-0.3-2.7-0.4-0.9-0.1-1.8 0-2.7 0.1-0.2 0-0.4 0.1-0.7 0.1-0.2 0-0.3 0.1-0.5 0.1l-0.2 0c0 0-0.1 0-0.2 0l-0.2 0.1-0.8 0.2 0 0 0 0-0.1 0-0.2 0.1-0.3 0.1c-0.2 0.1-0.4 0.2-0.6 0.3-0.4 0.2-0.8 0.4-1.2 0.6-0.8 0.5-1.5 0.9-2.2 1.5-0.7 0.6-1.4 1.2-1.9 1.9-0.6 0.7-1.1 1.4-1.6 2.2-0.4 0.8-0.8 1.5-1.1 2.3-0.1 0.4-0.3 0.7-0.4 1.1-0.1 0.3-0.2 0.6-0.3 0.9-0.2 0.6-0.3 1.2-0.4 1.5-0.1 0.4-0.1 0.6-0.1 0.6s-0.2-0.1-0.4-0.4c-0.1-0.1-0.3-0.3-0.5-0.5-0.2-0.2-0.4-0.4-0.6-0.7-0.2-0.3-0.4-0.6-0.6-1-0.2-0.4-0.4-0.8-0.6-1.3-0.2-0.5-0.3-1-0.4-1.6C100.4 90.5 100.4 89.9 100.3 89.2zM143.8 60.3c0-0.3-0.1-0.6 0-0.9 0-0.4 0.1-0.8 0.1-1.2 0.1-0.4 0.2-0.9 0.3-1.4 0.1-0.5 0.3-1 0.6-1.5 0.2-0.5 0.5-1 0.9-1.6 0.3-0.5 0.8-1.1 1.2-1.6 0.5-0.5 1-1.1 1.6-1.5 1.2-1 2.6-1.8 4.2-2.5 1.6-0.6 3.4-1 5.2-1.1 1.8-0.1 3.7 0.2 5.5 0.8l0.4 0.1 0.1 0 0.2 0.1 0.5 0.2c0.2 0.1 0.3 0.1 0.5 0.2l0.7 0.4c1 0.5 1.7 1 2.5 1.5 1.4 1.1 2.7 2.5 3.6 3.9 0.9 1.5 1.6 3 1.9 4.4 0.2 0.7 0.3 1.5 0.4 2.2 0 0.7 0.1 1.4 0 2-0.1 0.6-0.1 1.2-0.3 1.8-0.2 0.6-0.3 1.1-0.5 1.6-0.2 0.5-0.4 0.9-0.6 1.3-0.2 0.4-0.4 0.7-0.6 1-0.4 0.6-0.8 1-1 1.3-0.3 0.3-0.4 0.4-0.4 0.4s-0.1-0.2-0.1-0.6c-0.1-0.4-0.2-0.9-0.4-1.5-0.1-0.3-0.2-0.6-0.3-1-0.1-0.3-0.3-0.7-0.4-1.1-0.3-0.7-0.7-1.5-1.1-2.2-0.5-0.7-1-1.5-1.6-2.2-0.6-0.7-1.3-1.3-1.9-1.9-0.7-0.6-1.5-1.1-2.2-1.5-0.2-0.1-0.4-0.2-0.6-0.3-0.2-0.1-0.3-0.1-0.5-0.2l-0.2-0.1c0 0-0.1 0-0.2-0.1l-0.2-0.1-0.5-0.2-0.2-0.1-0.1 0c-0.8-0.2-1.7-0.5-2.5-0.6-0.9-0.1-1.8-0.2-2.7-0.1-0.9 0.1-1.8 0.2-2.7 0.4-0.9 0.2-1.7 0.5-2.6 0.8-0.8 0.4-1.6 0.7-2.2 1.2-0.3 0.2-0.6 0.4-1 0.6-0.3 0.2-0.6 0.4-0.8 0.6-0.5 0.3-0.9 0.8-1.2 1-0.3 0.2-0.4 0.4-0.4 0.4s0-0.2-0.1-0.6C143.9 60.8 143.8 60.6 143.8 60.3zM173.7 86.9c0.2-0.5 0.5-1 0.9-1.6 0.3-0.5 0.8-1.1 1.2-1.6 0.5-0.5 1-1.1 1.6-1.5 1.2-1 2.6-1.8 4.2-2.5 1.6-0.6 3.4-1 5.2-1.1 1.8-0.1 3.7 0.2 5.5 0.8l0.4 0.1 0.1 0 0.2 0.1 0.5 0.2c0.2 0.1 0.3 0.1 0.5 0.2l0.7 0.4c1 0.5 1.7 1 2.5 1.5 1.4 1.1 2.7 2.5 3.6 3.9 0.9 1.5 1.6 3 1.9 4.4 0.2 0.7 0.3 1.5 0.4 2.2 0 0.7 0.1 1.4 0 2-0.1 0.6-0.1 1.2-0.3 1.8-0.2 0.6-0.3 1.1-0.5 1.6-0.2 0.5-0.4 0.9-0.6 1.3-0.2 0.4-0.4 0.7-0.6 1-0.4 0.6-0.8 1-1 1.3-0.3 0.3-0.4 0.4-0.4 0.4s-0.1-0.2-0.1-0.6c-0.1-0.4-0.2-0.9-0.4-1.5-0.1-0.3-0.2-0.6-0.3-1-0.1-0.3-0.3-0.7-0.4-1.1-0.3-0.7-0.7-1.5-1.1-2.2-0.5-0.7-1-1.5-1.6-2.2-0.6-0.7-1.3-1.3-1.9-1.9-0.7-0.6-1.5-1.1-2.2-1.5-0.2-0.1-0.4-0.2-0.6-0.3-0.2-0.1-0.3-0.1-0.5-0.2l-0.2-0.1c0 0-0.1 0-0.2-0.1l-0.2-0.1-0.5-0.2-0.2-0.1-0.1 0c-0.8-0.2-1.7-0.5-2.5-0.6-0.9-0.1-1.8-0.2-2.7-0.1-0.9 0.1-1.8 0.2-2.7 0.4-0.9 0.2-1.7 0.5-2.6 0.8-0.8 0.4-1.6 0.7-2.2 1.2-0.3 0.2-0.6 0.4-1 0.6-0.3 0.2-0.6 0.4-0.8 0.6-0.5 0.3-0.9 0.8-1.2 1-0.3 0.2-0.4 0.4-0.4 0.4s0-0.2-0.1-0.6c0-0.2 0-0.4-0.1-0.7 0-0.3-0.1-0.6 0-0.9 0-0.4 0.1-0.8 0.1-1.2 0.1-0.4 0.2-0.9 0.3-1.4C173.3 87.9 173.5 87.4 173.7 86.9z" fill="#ffffff" data-fill-palette-color="quaternary"></path></svg></g></svg></g></svg></g></svg></g><g></g></svg></g><defs></defs></svg><rect width="395.52" height="153.25544080037122" fill="none" stroke="none" visibility="hidden"></rect></g></svg></g></svg>